<?xml version="1.0" encoding="utf-8"?>
<!-- Generator: Adobe Illustrator 28.0.0, SVG Export Plug-In . SVG Version: 6.00 Build 0)  -->
<svg version="1.1" id="Слой_1" xmlns="http://www.w3.org/2000/svg" xmlns:xlink="http://www.w3.org/1999/xlink" x="0px" y="0px"
	 viewBox="0 0 581.7 581.7" style="enable-background:new 0 0 581.7 581.7;" xml:space="preserve">
<style type="text/css">
	.st0{fill:#F5FAFF;}
	.st1{fill:url(#SVGID_1_);}
	.st2{fill:url(#SVGID_00000092448896813816025810000010584266560095973808_);}
	.st3{fill:url(#SVGID_00000004548471676446140340000010126850435733251004_);}
	.st4{fill:#666666;}
	.st5{fill:#2B2B2B;}
	.st6{fill:#1A1A1A;}
	.st7{fill:url(#SVGID_00000059308091584363624490000001300112767769889696_);}
	.st8{fill:url(#SVGID_00000026139009786166307000000017969438599699799485_);}
	.st9{fill:url(#SVGID_00000105385002234641520240000002442220799992565165_);}
	.st10{fill:url(#SVGID_00000163036156644888237430000010084835955092106378_);}
	.st11{fill:url(#SVGID_00000059306773537535583140000007109320100197159825_);}
	.st12{fill:url(#SVGID_00000130612545139691740080000017648271257684433029_);}
	.st13{fill:url(#SVGID_00000165195142339696639560000008587203703581804673_);}
	.st14{fill:url(#SVGID_00000014630381645772787260000006774282136672846263_);}
	.st15{fill:url(#SVGID_00000153683081455679844950000002681329006847286202_);}
	.st16{fill:url(#SVGID_00000165205023336501457200000001822430105203621509_);}
	.st17{fill:url(#SVGID_00000114769427842539357840000004915025039484681873_);}
	.st18{fill:url(#SVGID_00000021832980153804274760000009167744864796640388_);}
</style>
<g>
	<g>
		<g>
			<linearGradient id="SVGID_1_" gradientUnits="userSpaceOnUse" x1="0" y1="290.8514" x2="581.7029" y2="290.8514">
				<stop  offset="2.149471e-03" style="stop-color:#1A1A1A"/>
				<stop  offset="1" style="stop-color:#4D4D4D"/>
			</linearGradient>
			<path class="st1" d="M496.52,85.18C441.58,30.26,368.54,0,290.85,0S140.12,30.26,85.18,85.18C30.26,140.12,0,213.16,0,290.85
				s30.26,150.73,85.18,205.67c0.64,0.64,1.29,1.29,1.94,1.92c15.89,15.61,33.27,29.18,51.8,40.56
				c45.26,27.82,97.45,42.7,151.92,42.7c32.34,0,63.87-5.25,93.64-15.34l-28.57-58.54c-20.62,6.2-42.46,9.54-65.07,9.54
				c-45.51,0-87.92-13.49-123.46-36.69c-18.76-12.24-35.61-27.18-49.97-44.28c-33.11-39.39-53.07-90.18-53.07-145.53
				c0-124.9,101.6-226.5,226.5-226.5s226.5,101.6,226.5,226.5c0,40.17-10.51,77.94-28.94,110.69
				c-6.96,12.38-15.06,24.04-24.13,34.84c-14.36,17.1-31.21,32.05-49.97,44.28c-0.01,0.01-0.03,0.03-0.04,0.03l28.47,58.34
				c0.01-0.01,0.03-0.01,0.04-0.03c18.53-11.39,35.91-24.95,51.8-40.56c0.66-0.63,1.3-1.27,1.94-1.92
				c54.93-54.94,85.18-127.97,85.18-205.67S551.45,140.12,496.52,85.18z"/>
		</g>
		<g>
			<g>
				
					<linearGradient id="SVGID_00000049205606890802764410000009310889458524980394_" gradientUnits="userSpaceOnUse" x1="255.0613" y1="346.6795" x2="494.5761" y2="346.6795">
					<stop  offset="2.149471e-03" style="stop-color:#1A1A1A"/>
					<stop  offset="1" style="stop-color:#4D4D4D"/>
				</linearGradient>
				<path style="fill:url(#SVGID_00000049205606890802764410000009310889458524980394_);" d="M494.58,498.44
					c-15.89,15.61-33.27,29.18-51.8,40.56l-28.47-58.34L290.85,227.7l-35.79-73.34h71.58l137.64,282.02L494.58,498.44z"/>
			</g>
			<g>
				
					<linearGradient id="SVGID_00000014610812205351275440000001916691738978030997_" gradientUnits="userSpaceOnUse" x1="87.1268" y1="346.6795" x2="326.6416" y2="346.6795">
					<stop  offset="2.149471e-03" style="stop-color:#1A1A1A"/>
					<stop  offset="1" style="stop-color:#4D4D4D"/>
				</linearGradient>
				<path style="fill:url(#SVGID_00000014610812205351275440000001916691738978030997_);" d="M326.64,154.36l-35.79,73.34
					L167.39,480.66L138.93,539c-18.53-11.39-35.91-24.95-51.8-40.56l30.29-62.06l137.64-282.02H326.64z"/>
			</g>
		</g>
	</g>
	<polygon class="st4" points="290.85,227.7 308.98,264.85 326.64,154.36 	"/>
	<path class="st4" d="M488.41,401.54c-6.96,12.38-15.06,24.04-24.13,34.84l30.29,62.06L488.41,401.54z"/>
</g>
</svg>
